Coordinates
version=1
nRows=14
nColumns=40
inDegrees=yes

Units are S.I. units (second, meters, Newtons, ...)
Angles are in degrees.

endheader
time	pelvis_tilt	pelvis_list	pelvis_rotation	pelvis_tx	pelvis_ty	pelvis_tz	hip_flexion_r	hip_adduction_r	hip_rotation_r	knee_angle_r	knee_angle_r_beta	ankle_angle_r	subtalar_angle_r	mtp_angle_r	hip_flexion_l	hip_adduction_l	hip_rotation_l	knee_angle_l	knee_angle_l_beta	ankle_angle_l	subtalar_angle_l	mtp_angle_l	lumbar_extension	lumbar_bending	lumbar_rotation	arm_flex_r	arm_add_r	arm_rot_r	elbow_flex_r	pro_sup_r	wrist_flex_r	wrist_dev_r	arm_flex_l	arm_add_l	arm_rot_l	elbow_flex_l	pro_sup_l	wrist_flex_l	wrist_dev_l
     40.55000000	     -3.89472375	     -5.16940609	     -2.11083333	      0.87999197	      0.93459040	      0.41500245	     32.26779211	     -5.19680413	     -8.89292474	     46.33040336	     46.33040336	      4.47762797	    -13.76809164	      1.42844800	     13.45292561	     -5.26942223	    -10.55390614	     19.62435358	     19.62435358	     12.97634851	     -6.16840038	     -5.06703020	    -10.55762768	      3.10319976	      1.37572146	     -2.22516060	    -13.81358096	     -0.59091112	     43.53857082	     46.14962885	      0.00000000	      0.00000000	     22.59783446	    -15.13502986	     -4.40214712	     46.33297772	     46.80196736	      0.00000000	      0.00000000
     40.56371429	     -4.00803164	     -5.04157379	     -2.37816933	      0.87901536	      0.93442622	      0.41496482	     32.14628081	     -5.06764325	     -9.04577157	     42.41806769	     42.41806769	      3.58849229	    -12.79471909	     -0.36045197	     12.94321907	     -5.14810728	    -10.98612730	     19.30154580	     19.30154580	     13.10709775	     -5.83761361	     -5.62729345	    -10.47040551	      2.82246654	      0.59694924	     -1.05689296	    -12.98689384	     -3.55067669	     35.34102091	     46.58265217	      0.00000000	      0.00000000	     22.18977084	    -15.61008537	     -6.82134132	     49.70446212	     47.03836895	      0.00000000	      0.00000000
     40.57742857	     -4.09522363	     -4.96559441	     -2.63275561	      0.87818246	      0.93427580	      0.41489304	     31.84126483	     -4.90143587	     -9.42551760	     38.32535826	     38.32535826	      2.97040198	    -11.27392233	     -1.02605819	     12.36869236	     -5.02359715	    -11.19381105	     18.91692598	     18.91692598	     13.28966301	     -5.81868055	     -5.91868985	    -10.49121632	      2.70898827	      0.55801065	     -1.94383915	    -13.11708464	     -5.68414969	     32.34000247	     46.75858247	      0.00000000	      0.00000000	     22.40792784	    -15.59355568	     -8.35794768	     51.94229103	     47.17344539	      0.00000000	      0.00000000
     40.59114286	     -4.23939921	     -4.92037861	     -2.84115594	      0.87739282	      0.93397204	      0.41495445	     31.51172008	     -4.65463600	     -9.91017715	     34.22091267	     34.22091267	      2.63915914	     -9.46715388	     -0.43869086	     11.89263382	     -4.94300221	    -11.38900512	     18.59515259	     18.59515259	     13.53870038	     -5.75249357	     -6.01783167	    -10.40070783	      2.66966712	      0.72727227	     -3.59474408	    -13.69350147	     -5.89199735	     31.23197009	     46.79744462	      0.00000000	      0.00000000	     23.13382956	    -15.67868682	     -8.59239274	     52.96124986	     47.20781669	      0.00000000	      0.00000000
     40.60485714	     -4.30428460	     -4.81132486	     -3.07895103	      0.87683303	      0.93372231	      0.41513689	     31.00247587	     -4.45814680	    -10.54457291	     30.11558212	     30.11558212	      2.27753037	     -7.19774760	      0.11324156	     11.24477189	     -4.79054588	    -11.64891805	     18.15306383	     18.15306383	     13.77409687	     -5.59886858	     -6.21040958	    -10.39739419	      2.54069968	      1.07741189	     -5.11247210	    -14.18016674	     -6.25611847	     29.84864403	     46.85928606	      0.00000000	      0.00000000	     23.73103071	    -15.60738374	     -8.97620655	     54.48441761	     47.25909282	      0.00000000	      0.00000000
     40.61857143	     -4.33876082	     -4.61649696	     -3.33475373	      0.87648959	      0.93343184	      0.41543215	     30.42512125	     -4.32494060	    -11.33233730	     26.16619563	     26.16619563	      1.87412680	     -4.59828232	      0.80350622	     10.50940158	     -4.53691591	    -11.97101294	     17.62804381	     17.62804381	     13.93450289	     -5.41841210	     -6.55502678	    -10.43450663	      2.27483522	      1.29780117	     -6.38691952	    -14.53610332	     -6.88227515	     28.34086276	     46.94610470	      0.00000000	      0.00000000	     24.02021402	    -15.59945411	     -9.60234411	     56.48027441	     47.33225290	      0.00000000	      0.00000000
     40.63228571	     -4.45293447	     -4.49257853	     -3.50715237	      0.87628813	      0.93295105	      0.41585464	     29.88270175	     -4.02935950	    -12.08313546	     22.43149290	     22.43149290	      1.37812309	     -2.43363058	      1.80163076	      9.86350675	     -4.35785908	    -12.17038013	     17.10548725	     17.10548725	     14.13680332	     -5.28472947	     -6.84317815	    -10.32875771	      2.16338966	      1.30209937	     -7.64764732	    -14.97032252	     -7.32953576	     27.33875814	     47.00488146	      0.00000000	      0.00000000	     24.15178517	    -15.68546831	    -10.07013664	     57.91926041	     47.38629512	      0.00000000	      0.00000000
     40.64600000	     -4.50763129	     -4.20124844	     -3.73758704	      0.87645952	      0.93240707	      0.41640477	     29.46101683	     -4.00323549	    -13.18392885	     19.48129147	     19.48129147	      1.61376494	      0.63879301	      3.93554599	      8.98225886	     -3.96009696	    -12.43884044	     16.26954141	     16.26954141	     13.96457259	     -5.21751250	     -7.88380876	    -10.25865805	      1.76654355	      0.92688846	     -8.29445524	    -15.14394406	     -8.92060734	     25.84875047	     47.16064879	      0.00000000	      0.00000000	     23.32199587	    -15.89300888	    -11.55613655	     61.40254387	     47.53095066	      0.00000000	      0.00000000
     40.65971429	     -4.57174131	     -4.02854952	     -3.92805218	      0.87668731	      0.93185870	      0.41723061	     28.93255346	     -3.64970316	    -13.75430373	     16.64061349	     16.64061349	      1.16378380	      2.25607270	      5.09653325	      8.22129104	     -3.73334373	    -12.63950882	     15.69266186	     15.69266186	     14.17183068	     -5.06797593	     -8.09989545	    -10.14027654	      1.54813134	      1.02614900	     -9.45794011	    -15.46824680	     -9.21190420	     25.24204372	     47.19386426	      0.00000000	      0.00000000	     23.47913222	    -15.93931790	    -11.86543227	     62.36780471	     47.56750823	      0.00000000	      0.00000000
     40.67342857	     -4.56099495	     -3.78596911	     -4.14213393	      0.87724361	      0.93134015	      0.41803672	     28.65292666	     -3.55393470	    -14.69658124	     15.03081398	     15.03081398	      2.05033382	      4.53467458	      8.89128578	      7.15362399	     -3.34224162	    -12.76162398	     14.65093989	     14.65093989	     13.77997127	     -5.24078579	     -9.39933044	    -10.14189767	      1.27762462	      0.72365702	    -10.23049870	    -15.66025896	    -11.05677272	     24.64083710	     47.30475463	      0.00000000	      0.00000000	     22.57786465	    -16.07699084	    -13.24947396	     65.31202372	     47.68289781	      0.00000000	      0.00000000
     40.68714286	     -4.66746776	     -3.54106411	     -4.31862518	      0.87782470	      0.93054823	      0.41911827	     28.36310749	     -3.32018961	    -15.13638709	     13.51978711	     13.51978711	      1.76213534	      5.58257630	      9.40133613	      6.41037474	     -3.04831934	    -13.03048355	     14.04886680	     14.04886680	     14.05258257	     -4.96633146	     -9.50566656	     -9.94335728	      0.98086912	      0.85441418	    -11.27486622	    -15.86927850	    -11.19078853	     24.28112632	     47.31606278	      0.00000000	      0.00000000	     22.65434786	    -16.05925326	    -13.38758023	     65.96952673	     47.70181764	      0.00000000	      0.00000000
     40.70085714	     -4.50420191	     -3.34177481	     -4.44279531	      0.87889097	      0.93007451	      0.42018824	     27.85038728	     -3.17798957	    -15.76850046	     12.75301717	     12.75301717	      1.74428328	      6.70511920	      9.80102119	      5.23345350	     -2.75437651	    -13.27303764	     13.23143357	     13.23143357	     14.25774422	     -4.46381588	     -9.72113195	     -9.96479119	      0.75754697	      1.01189005	    -12.46387440	    -16.19389388	    -11.45827639	     24.15263417	     47.32298563	      0.00000000	      0.00000000	     22.49649210	    -16.01718981	    -13.67292961	     67.20836055	     47.73829581	      0.00000000	      0.00000000
     40.71457143	     -4.61010245	     -3.15828391	     -4.51639105	      0.87979671	      0.92896064	      0.42143204	     27.76482910	     -3.01245577	    -15.88329087	     12.66561643	     12.66561643	      1.77435671	      6.81623471	      9.83065660	      4.68982858	     -2.57584409	    -13.33110884	     13.04535391	     13.04535391	     14.63739370	     -4.40420170	     -9.88175043	     -9.66609872	      0.57727188	      0.87792968	    -13.32866562	    -16.44483625	    -11.56036135	     23.93198298	     47.33138432	      0.00000000	      0.00000000	     22.31115008	    -16.24103871	    -13.83889998	     67.44692587	     47.75268798	      0.00000000	      0.00000000
     40.72828571	     -4.69062300	     -3.02014633	     -4.56170712	      0.88095151	      0.92789829	      0.42275192	     27.51989076	     -2.82630317	    -15.96250698	     12.77239808	     12.77239808	      1.81023485	      6.87226773	      9.77618422	      4.04913434	     -2.43588675	    -13.38963836	     12.75616695	     12.75616695	     15.02466148	     -4.25801150	    -10.01937950	     -9.40887183	      0.45377321	      0.78163379	    -14.12449580	    -16.61215009	    -11.65387989	     23.76732905	     47.33712107	      0.00000000	      0.00000000	     22.01482900	    -16.30510088	    -13.97665531	     67.73113649	     47.76485919	      0.00000000	      0.00000000
